<svg xmlns="http://www.w3.org/2000/svg" width="14" height="16" viewBox="0 0 14 16">
<path id="hand-paper-emoji" d="M11.643,3.52V3.181A2.088,2.088,0,0,0,9.048,1.133a2.057,2.057,0,0,0-3.687.023A2.077,2.077,0,0,0,2.786,3.187V7.129a2.046,2.046,0,0,0-1.94.277,2.108,2.108,0,0,0-.455,2.911L4.14,15.58a1,1,0,0,0,.814.42H11.92a1,1,0,0,0,.974-.775l.943-4.092A6.364,6.364,0,0,0,14,9.7V5.593A2.079,2.079,0,0,0,11.643,3.52ZM12.5,9.7a4.862,4.862,0,0,1-.124,1.09l-.854,3.7H5.212l-3.6-5.053c-.451-.633.469-1.337.919-.706l.848,1.19a.5.5,0,0,0,.907-.29V3.187a.572.572,0,1,1,1.143.022V8a.5.5,0,0,0,.5.5h.214a.5.5,0,0,0,.5-.5V2.093a.572.572,0,1,1,1.143.022V8a.5.5,0,0,0,.5.5H8.5A.5.5,0,0,0,9,8V3.16a.572.572,0,1,1,1.143.022V8a.5.5,0,0,0,.5.5h.214a.5.5,0,0,0,.5-.5V5.615A.572.572,0,1,1,12.5,5.593V9.7Z" transform="translate(0 0)" style="fill: rgb(255, 255, 255);"></path>
</svg>