<svg xmlns="http://www.w3.org/2000/svg" width="16" height="14" viewBox="0 0 16 14">
<path id="hand-rock-emoji" d="M12.777,33.471a2.321,2.321,0,0,0-3.088-.737,2.321,2.321,0,0,0-3.385,0,2.314,2.314,0,0,0-3.458,1.9A2.307,2.307,0,0,0,0,36.857v1.78a3.55,3.55,0,0,0,1.224,2.676l3.053,2.659c.133.116.1.174.1,1.028a1,1,0,0,0,1,1H13.25a1,1,0,0,0,1-1,3.013,3.013,0,0,1,.124-1.324l1.339-3.114A3.507,3.507,0,0,0,16,39.169V35.593A2.316,2.316,0,0,0,12.777,33.471Zm1.723,5.7a2.016,2.016,0,0,1-.165.8L13,43.084a3.011,3.011,0,0,0-.246,1.2V44.5H5.875v-.321a1.775,1.775,0,0,0-.612-1.338L2.209,40.182A2.051,2.051,0,0,1,1.5,38.637v-1.78a.813.813,0,0,1,1.625.021v1.288a.5.5,0,0,0,.172.377l.219.19a.5.5,0,0,0,.828-.377V34.715a.813.813,0,0,1,1.625.021v.836a.5.5,0,0,0,.5.5h.219a.5.5,0,0,0,.5-.5V34.286a.813.813,0,0,1,1.625.021v1.265a.5.5,0,0,0,.5.5h.219a.5.5,0,0,0,.5-.5v-.857a.813.813,0,0,1,1.625.021v.836a.5.5,0,0,0,.5.5h.219a.5.5,0,0,0,.5-.5.813.813,0,0,1,1.625.021Z" transform="translate(0 -32)" style="fill: rgb(255, 255, 255);"></path>
</svg>