<svg xmlns="http://www.w3.org/2000/svg" width="16" height="14" viewBox="0 0 16 14">
<path id="hand-scissors-emoji" d="M8,46h2.187a2.119,2.119,0,0,0,.475-.054l3.719-.857A2.077,2.077,0,0,0,16,43.071V36.643a2.071,2.071,0,0,0-1.063-1.8l-3.062-1.714a2.173,2.173,0,0,0-2.882.773L4.464,32.156a2.32,2.32,0,0,0-2.989,1.288,2.278,2.278,0,0,0,1.311,2.972L5.25,37l-2.937-.286a2.286,2.286,0,1,0,0,4.571H5.051A2.063,2.063,0,0,0,6,43.317,2.078,2.078,0,0,0,8,46Zm0-1.5a.572.572,0,1,1,0-1.143.5.5,0,0,0,.5-.5v-.214a.5.5,0,0,0-.5-.5H7.125a.572.572,0,1,1,0-1.143H8a.5.5,0,0,0,.5-.5v-.214a.5.5,0,0,0-.5-.5H2.312a.786.786,0,1,1,0-1.571H8a.5.5,0,0,0,.5-.5v-.363a.5.5,0,0,0-.32-.467L3.325,35.016a.79.79,0,1,1,.6-1.46l5.2,2a.5.5,0,0,0,.567-.15l.68-.833a.612.612,0,0,1,.765-.141L14.2,36.149a.57.57,0,0,1,.3.494v6.428a.575.575,0,0,1-.455.556l-3.719.857a.617.617,0,0,1-.138.016H8Z" transform="translate(0 -32)" style="fill: rgb(255, 255, 255);"></path>
</svg>